<svg width="444.4" height="72.002" viewBox="0 0 444.4 72.002" xmlns="http://www.w3.org/2000/svg"><g id="svgGroup" stroke-linecap="round" fill-rule="evenodd" font-size="9pt" stroke="#000" stroke-width="0.25mm" fill="#fbff00" style="stroke:#000;stroke-width:0.25mm;fill:#fbff00"><path d="M 213.8 70.801 L 204.8 70.801 L 204.8 18.801 L 213.5 18.801 L 213.5 27.501 Q 216.3 23.301 220.6 20.451 A 17.205 17.205 0 0 1 229.802 17.609 A 20.858 20.858 0 0 1 230.4 17.601 A 20.994 20.994 0 0 1 234.817 18.04 Q 237.803 18.683 240.085 20.264 A 13.128 13.128 0 0 1 240.55 20.601 A 15.751 15.751 0 0 1 245.998 28.29 A 19.154 19.154 0 0 1 246.1 28.601 Q 249.2 24.001 253.45 20.801 A 15.669 15.669 0 0 1 260.241 17.917 A 21.446 21.446 0 0 1 264 17.601 A 21.437 21.437 0 0 1 268.888 18.123 Q 272.474 18.963 274.963 21.152 A 12.994 12.994 0 0 1 276.65 22.951 A 18.992 18.992 0 0 1 280.061 30.223 Q 280.8 33.273 280.8 36.901 L 280.8 70.801 L 271.8 70.801 L 271.8 37.601 A 19.042 19.042 0 0 0 271.463 33.911 Q 271.027 31.706 270.028 29.962 A 10.982 10.982 0 0 0 269.3 28.851 A 7.974 7.974 0 0 0 263.487 25.555 A 10.678 10.678 0 0 0 262.4 25.501 A 11.926 11.926 0 0 0 255.641 27.628 A 15.996 15.996 0 0 0 254.05 28.851 Q 250.2 32.201 247.3 36.701 L 247.3 70.801 L 238.3 70.801 L 238.3 37.601 A 19.042 19.042 0 0 0 237.963 33.911 Q 237.527 31.706 236.528 29.962 A 10.982 10.982 0 0 0 235.8 28.851 A 7.974 7.974 0 0 0 229.987 25.555 A 10.678 10.678 0 0 0 228.9 25.501 A 12.02 12.02 0 0 0 222.581 27.329 A 16.244 16.244 0 0 0 220.6 28.751 Q 216.7 32.001 213.8 36.401 L 213.8 70.801 Z M 64.8 68.301 L 56.1 71.801 L 48.3 51.801 L 15.9 51.801 L 8.1 71.601 L 0 68.301 L 27.4 0.801 L 37.8 0.801 L 64.8 68.301 Z M 297.3 70.601 L 297.3 1.001 A 100.907 100.907 0 0 1 299.156 0.807 Q 302.053 0.53 305.876 0.308 A 270.552 270.552 0 0 1 306 0.301 A 168.416 168.416 0 0 1 310.837 0.096 Q 313.308 0.024 316.045 0.007 A 285.352 285.352 0 0 1 317.9 0.001 Q 326.3 0.001 332.159 2.089 A 22.604 22.604 0 0 1 337.6 4.851 A 16.711 16.711 0 0 1 342.163 9.508 Q 344.354 12.941 344.491 17.401 A 19.526 19.526 0 0 1 344.5 18.001 A 17.052 17.052 0 0 1 343.873 22.72 A 13.798 13.798 0 0 1 341.55 27.351 Q 338.6 31.201 333 33.701 A 30.217 30.217 0 0 1 337.636 35.761 Q 341.113 37.694 343.3 40.351 Q 346.8 44.601 346.8 50.801 Q 346.8 60.115 339.59 65.729 A 22.979 22.979 0 0 1 339.3 65.951 A 24.681 24.681 0 0 1 331.923 69.661 Q 325.879 71.601 317.5 71.601 A 221.836 221.836 0 0 1 309.42 71.459 A 187.566 187.566 0 0 1 305.95 71.301 A 227.449 227.449 0 0 1 303.366 71.144 Q 300.559 70.958 298.495 70.738 A 65.535 65.535 0 0 1 297.3 70.601 Z M 152.8 48.501 L 116.4 48.501 A 24.088 24.088 0 0 0 117.539 53.526 Q 118.875 57.338 121.5 59.901 Q 125.7 64.001 132.6 64.001 Q 137.1 64.001 140.7 63.051 Q 144.3 62.101 147.6 60.601 L 149.7 68.301 A 40.77 40.77 0 0 1 145.365 69.927 A 51.863 51.863 0 0 1 141.6 70.951 A 38.914 38.914 0 0 1 136.508 71.77 A 52.025 52.025 0 0 1 131.5 72.001 A 28.318 28.318 0 0 1 123.754 70.995 A 21.108 21.108 0 0 1 113.75 64.851 A 23.521 23.521 0 0 1 108.545 55.311 Q 107.2 50.646 107.2 44.801 A 35.359 35.359 0 0 1 108.033 36.979 A 28.84 28.84 0 0 1 110.15 30.851 A 24.642 24.642 0 0 1 115.166 23.769 A 22.887 22.887 0 0 1 118.4 21.151 A 21.048 21.048 0 0 1 128.659 17.679 A 26.205 26.205 0 0 1 130.7 17.601 Q 138.2 17.601 143.15 20.851 Q 148.1 24.101 150.6 29.601 A 28.185 28.185 0 0 1 153.026 39.464 A 33.434 33.434 0 0 1 153.1 41.701 A 75.204 75.204 0 0 1 152.809 48.397 A 69.426 69.426 0 0 1 152.8 48.501 Z M 401.4 48.501 L 365 48.501 A 24.088 24.088 0 0 0 366.139 53.526 Q 367.475 57.338 370.1 59.901 Q 374.3 64.001 381.2 64.001 Q 385.7 64.001 389.3 63.051 Q 392.9 62.101 396.2 60.601 L 398.3 68.301 A 40.77 40.77 0 0 1 393.965 69.927 A 51.863 51.863 0 0 1 390.2 70.951 A 38.914 38.914 0 0 1 385.108 71.77 A 52.025 52.025 0 0 1 380.1 72.001 A 28.318 28.318 0 0 1 372.354 70.995 A 21.108 21.108 0 0 1 362.35 64.851 A 23.521 23.521 0 0 1 357.145 55.311 Q 355.8 50.646 355.8 44.801 A 35.359 35.359 0 0 1 356.633 36.979 A 28.84 28.84 0 0 1 358.75 30.851 A 24.642 24.642 0 0 1 363.766 23.769 A 22.887 22.887 0 0 1 367 21.151 A 21.048 21.048 0 0 1 377.259 17.679 A 26.205 26.205 0 0 1 379.3 17.601 Q 386.8 17.601 391.75 20.851 Q 396.7 24.101 399.2 29.601 A 28.185 28.185 0 0 1 401.626 39.464 A 33.434 33.434 0 0 1 401.7 41.701 A 75.204 75.204 0 0 1 401.409 48.397 A 69.426 69.426 0 0 1 401.4 48.501 Z M 167.1 52.901 L 167.1 28.501 L 158.1 28.501 L 158.1 20.701 L 167.3 20.701 L 169.2 4.301 L 176.1 4.301 L 176.1 20.701 L 190.5 20.701 L 190.5 28.501 L 176.1 28.501 L 176.1 53.601 A 21.559 21.559 0 0 0 176.268 56.397 Q 176.741 60.003 178.55 61.701 Q 181 64.001 184.4 64.001 Q 186.9 64.001 189.15 63.201 Q 191.4 62.401 193.3 61.301 L 195.8 68.501 A 18.546 18.546 0 0 1 194.182 69.357 Q 193.38 69.735 192.434 70.109 A 43.365 43.365 0 0 1 190.4 70.851 Q 187 72.001 183.3 72.001 Q 175.8 72.001 171.45 67.051 A 16.116 16.116 0 0 1 168.222 61.148 Q 167.459 58.718 167.215 55.781 A 34.777 34.777 0 0 1 167.1 52.901 Z M 415.7 52.901 L 415.7 28.501 L 406.7 28.501 L 406.7 20.701 L 415.9 20.701 L 417.8 4.301 L 424.7 4.301 L 424.7 20.701 L 439.1 20.701 L 439.1 28.501 L 424.7 28.501 L 424.7 53.601 A 21.559 21.559 0 0 0 424.868 56.397 Q 425.341 60.003 427.15 61.701 Q 429.6 64.001 433 64.001 Q 435.5 64.001 437.75 63.201 Q 440 62.401 441.9 61.301 L 444.4 68.501 A 18.546 18.546 0 0 1 442.782 69.357 Q 441.98 69.735 441.034 70.109 A 43.365 43.365 0 0 1 439 70.851 Q 435.6 72.001 431.9 72.001 Q 424.4 72.001 420.05 67.051 A 16.116 16.116 0 0 1 416.822 61.148 Q 416.059 58.718 415.815 55.781 A 34.777 34.777 0 0 1 415.7 52.901 Z M 82.8 70.801 L 73.8 70.801 L 73.8 18.801 L 82.5 18.801 L 82.5 30.101 Q 83.8 26.801 86 23.951 Q 88.2 21.101 91.5 19.351 A 14.817 14.817 0 0 1 96.18 17.827 A 19.459 19.459 0 0 1 99.2 17.601 Q 100.7 17.601 102.2 17.751 A 18.972 18.972 0 0 1 103.255 17.884 Q 103.755 17.963 104.182 18.063 A 8.817 8.817 0 0 1 104.7 18.201 L 102 27.501 A 9.763 9.763 0 0 0 99.855 26.888 Q 98.759 26.701 97.5 26.701 A 12.958 12.958 0 0 0 90.87 28.546 A 15.609 15.609 0 0 0 90.45 28.801 Q 87.122 30.887 84.978 35.243 A 22.927 22.927 0 0 0 84.95 35.301 Q 83.187 38.908 82.87 44.128 A 39.09 39.09 0 0 0 82.8 46.501 L 82.8 70.801 Z M 318.2 38.401 L 306.8 38.401 L 306.8 63.101 Q 312.1 63.701 318.2 63.701 Q 327.1 63.701 332.1 60.501 Q 337.1 57.301 337.1 51.201 A 11.728 11.728 0 0 0 336.228 46.601 Q 335.126 43.988 332.633 42.113 A 14.027 14.027 0 0 0 332.2 41.801 A 16.7 16.7 0 0 0 327.526 39.599 Q 323.603 38.401 318.2 38.401 Z M 32.1 10.201 L 18.9 43.801 L 45.2 43.801 L 32.1 10.201 Z M 306.8 8.201 L 306.8 31.001 L 317.8 31.001 Q 325.7 31.001 330.35 27.701 Q 335 24.401 335 19.201 A 10.798 10.798 0 0 0 334.326 15.301 Q 333.239 12.471 330.4 10.651 A 16.643 16.643 0 0 0 325.914 8.687 Q 322.425 7.701 317.8 7.701 Q 314.5 7.701 311.8 7.851 Q 309.1 8.001 306.8 8.201 Z M 116.3 41.201 L 144.8 41.201 A 24.355 24.355 0 0 0 144.396 36.615 Q 143.9 34.031 142.796 32.008 A 12.422 12.422 0 0 0 141 29.501 A 12.488 12.488 0 0 0 134.039 25.725 A 18.395 18.395 0 0 0 130.5 25.401 A 13.58 13.58 0 0 0 125.388 26.336 A 12.524 12.524 0 0 0 120.9 29.451 Q 117.1 33.501 116.3 41.201 Z M 364.9 41.201 L 393.4 41.201 A 24.355 24.355 0 0 0 392.996 36.615 Q 392.5 34.031 391.396 32.008 A 12.422 12.422 0 0 0 389.6 29.501 A 12.488 12.488 0 0 0 382.639 25.725 A 18.395 18.395 0 0 0 379.1 25.401 A 13.58 13.58 0 0 0 373.988 26.336 A 12.524 12.524 0 0 0 369.5 29.451 Q 365.7 33.501 364.9 41.201 Z" vector-effect="non-scaling-stroke"/></g></svg>